# xmcd CD database file
#
# Track frame offsets:
#	150
#	23486
#	41720
#	59848
#	73360
#	96846
#	112376
#	126899
#	139849
#	156318
#	177038
#	193593
#	203056
#	226646
#
# Disc length: 3173 seconds
#
# Revision: 0
# Processed by: cddbd v1.5.1PL0 Copyright (c) Steve Scherf et al.
# Submitted via: CDex 1.51
#
DISCID=ce0c630e
DTITLE=Pino Daniele - Passi D'Autore
DYEAR=1900
DGENRE=Jazz
TTITLE0=arriverà l'aurora
TTITLE1=pigro
TTITLE2=bella da vivere
TTITLE3=la mia casa sei tu
TTITLE4=gli stessi sguardi
TTITLE5=nuages sulle note
TTITLE6=dammi una seconda vita
TTITLE7=dejà-vu
TTITLE8=ali di cera
TTITLE9=la nostra estate insieme
TTITLE10=isola grande
TTITLE11=tango della buena suerte
TTITLE12=concerto per noi due
TTITLE13=sofia sulle note
EXTD=
EXTT0=
EXTT1=
EXTT2=
EXTT3=
EXTT4=
EXTT5=
EXTT6=
EXTT7=
EXTT8=
EXTT9=
EXTT10=
EXTT11=
EXTT12=
EXTT13=
PLAYORDER=
